<?xml version="1.0" encoding="UTF-8"?>
<svg viewBox="0 0 200 200" xmlns="http://www.w3.org/2000/svg">
 <path d="m188.5 100a88.5 88.5 0 1 0 -177 0 88.5 88.5 0 1 0 177 0" fill="none" stroke="#000" stroke-width="20"/>
 <path d="m94.555 91.952c5.5698 0 9.5522-1.0352 11.947-3.1074 2.4414-2.0703 3.6602-5.4775 3.6602-10.219 0-4.6953-1.2188-8.0566-3.6602-10.082-2.3945-2.0254-6.377-3.0391-11.947-3.0391h-11.187v26.447h11.187m-11.187 18.367v39.016h-26.586v-103.1h40.604c13.581 0 23.524 2.2793 29.833 6.8359 6.3516 4.5586 9.5273 11.762 9.5273 21.614 0 6.8135-1.6562 12.407-4.9707 16.78-3.2695 4.373-8.2168 7.5952-14.846 9.6655 3.6348 0.82812 6.8809 2.7168 9.7363 5.6641 2.8984 2.8984 5.8223 7.3184 8.7695 13.258l14.432 29.277h-28.312l-12.568-25.617c-2.5312-5.1562-5.1094-8.6797-7.7324-10.566-2.5781-1.8867-6.0308-2.832-10.359-2.832h-7.5264"/>
</svg>
