<?xml version="1.0" encoding="iso-8859-1"?>
<!-- Generator: Adobe Illustrator 19.0.0, SVG Export Plug-In . SVG Version: 6.00 Build 0)  -->
<svg version="1.1" id="Layer_1" xmlns="http://www.w3.org/2000/svg" xmlns:xlink="http://www.w3.org/1999/xlink" x="0px" y="0px"
	 viewBox="0 0 512.002 512.002" style="enable-background:new 0 0 512.002 512.002;" xml:space="preserve">
<g>
	<g>
		<path d="M437.108,74.898c-99.869-99.858-262.345-99.858-362.214,0c-99.858,99.858-99.858,262.34,0,362.203
			c49.934,49.929,115.521,74.896,181.107,74.896s131.173-24.967,181.107-74.896C536.966,337.243,536.966,174.762,437.108,74.898z
			 M373.067,166.895c0,9.229-7.484,16.707-16.707,16.707s-16.707-7.478-16.707-16.707v-16.826H191.01l77.923,95.294
			c5.036,6.15,5.036,14.975,0,21.126l-77.923,95.204h148.643v-16.588c0-9.229,7.484-16.707,16.707-16.707
			c9.223,0,16.707,7.478,16.707,16.707v33.414c0,9.229-7.601,16.588-16.824,16.588H155.758c-6.45,0-12.334-3.66-15.098-9.491
			c-2.762-5.835-1.926-12.713,2.164-17.705l91.585-111.926L142.825,144.06c-4.09-4.992-4.927-11.959-2.164-17.795
			c2.762-5.83,8.648-9.61,15.098-9.61h200.485c9.223,0,16.824,7.597,16.824,16.826V166.895z"/>
	</g>
</g>
<g>
</g>
<g>
</g>
<g>
</g>
<g>
</g>
<g>
</g>
<g>
</g>
<g>
</g>
<g>
</g>
<g>
</g>
<g>
</g>
<g>
</g>
<g>
</g>
<g>
</g>
<g>
</g>
<g>
</g>
</svg>
